<svg xmlns="http://www.w3.org/2000/svg" fill="none" viewBox="0 0 74 23" height="23" width="74">
  <path fill="black" d="M19.0311 18.8006C18.7167 18.6975 18.7167 18.3413 19.0311 18.2382L28.8293 15.0231C29.0793 14.941 29.3535 15.0881 29.3535 15.3043L27.2144 18.5194L29.3535 21.7346C29.3535 21.9507 29.0793 22.0978 28.8293 22.0158L19.0311 18.8006Z"></path>
  <path fill="black" d="M25.4165 6.38423C25.7066 6.22511 25.9667 6.46839 25.8273 6.76845L21.4819 16.1204C21.371 16.3591 21.0763 16.4589 20.9184 16.3112L20.0317 12.5526L16.2224 11.9185C16.0645 11.7708 16.1444 11.4701 16.3751 11.3435L25.4165 6.38423Z"></path>
  <path fill="black" d="M27.1214 10.8065C27.1102 11.1372 27.4446 11.2596 27.6496 10.9999L34.0374 2.90427C34.2004 2.69768 34.1565 2.38964 33.9535 2.31531L30.1989 3.21868L27.9152 0.104589C27.7122 0.0302645 27.4798 0.237165 27.4709 0.500176L27.1214 10.8065Z"></path>
  <path fill="black" d="M42.9565 11.3399C43.1966 11.5675 43.0443 11.8895 42.716 11.8483L32.4838 10.5665C32.2227 10.5338 32.0377 10.2836 32.1301 10.0882L35.4383 8.09601L34.8788 4.27503C34.9712 4.07959 35.2819 4.06382 35.4729 4.24488L42.9565 11.3399Z"></path>
  <path fill="black" d="M46.8051 12.3988C46.6955 12.711 46.3395 12.7036 46.2428 12.3872L43.231 2.52459C43.1541 2.27291 43.3068 2.00182 43.523 2.00629L46.6932 4.21143L49.9519 2.13925C50.168 2.14372 50.3094 2.42088 50.2222 2.66918L46.8051 12.3988Z"></path>
  <path fill="black" d="M39.8093 18.3428C40.1397 18.3245 40.2319 17.9805 39.9549 17.7995L31.3227 12.1579C31.1024 12.014 30.7995 12.0851 30.7435 12.2939L31.9776 15.9531L29.0792 18.5051C29.0233 18.7139 29.2501 18.9269 29.5128 18.9124L39.8093 18.3428Z"></path>
  <path fill="black" d="M38.9894 13.2954C38.7847 13.0354 38.9819 12.7389 39.3008 12.8271L49.2402 15.5751C49.4938 15.6452 49.6407 15.9195 49.521 16.0996L45.9595 17.5924L45.9605 21.4541C45.8408 21.6342 45.531 21.6048 45.3682 21.398L38.9894 13.2954Z"></path>
  <path fill="black" d="M50.4095 9.82326C50.163 9.60258 49.8546 9.78064 49.9224 10.1045L52.0371 20.1976C52.0911 20.4551 52.3556 20.619 52.5428 20.5109L54.2576 17.0508L58.1116 17.2958C58.2988 17.1877 58.2891 16.8767 58.093 16.7012L50.4095 9.82326Z"></path>
  <path fill="black" d="M1.70315 19.5342C1.37346 19.5621 1.23422 19.2344 1.48323 19.0165L9.24429 12.2262C9.44235 12.0529 9.75222 12.0811 9.83675 12.2801L9.12504 16.0756L12.351 18.1984C12.4355 18.3974 12.2407 18.64 11.9785 18.6622L1.70315 19.5342Z"></path>
  <path fill="black" d="M73.5229 16.3109C73.8308 16.4319 73.8105 16.7874 73.4907 16.8724L63.5247 19.5221C63.2704 19.5897 63.005 19.4272 63.0174 19.2114L65.3369 16.1238L63.3851 12.7916C63.3974 12.5758 63.6796 12.4446 63.9245 12.5408L73.5229 16.3109Z"></path>
</svg>