<svg xmlns="http://www.w3.org/2000/svg" fill="none" viewBox="0 0 36 36" height="36" width="36">
  <path fill="black" d="M27.3109 27.8276C27.6062 27.9769 27.858 27.7251 27.7086 27.4299L23.0537 18.228C22.9349 17.9932 22.637 17.9034 22.4842 18.0562L21.7233 21.8423L17.9373 22.6031C17.7844 22.756 17.8743 23.0539 18.1091 23.1726L27.3109 27.8276Z"></path>
  <path fill="black" d="M27.7086 8.25223C27.858 7.95699 27.6062 7.70517 27.3109 7.85452L18.1091 12.5095C17.8743 12.6283 17.7844 12.9261 17.9373 13.079L21.7233 13.8399L22.4842 17.6259C22.637 17.7788 22.9349 17.6889 23.0537 17.4541L27.7086 8.25223Z"></path>
  <path fill="black" d="M8.13328 7.85451C7.83804 7.70516 7.58622 7.95698 7.73557 8.25222L12.3905 17.4541C12.5093 17.6889 12.8072 17.7788 12.9601 17.6259L13.7209 13.8399L17.507 13.079C17.6598 12.9261 17.5699 12.6283 17.3351 12.5095L8.13328 7.85451Z"></path>
  <path fill="black" d="M7.73556 27.4299C7.58621 27.7251 7.83803 27.9769 8.13327 27.8276L17.3351 23.1726C17.5699 23.0539 17.6598 22.756 17.5069 22.6031L13.7209 21.8422L12.9601 18.0562C12.8072 17.9033 12.5093 17.9932 12.3905 18.228L7.73556 27.4299Z"></path>
  <path fill="black" d="M35.2084 18.2107C35.5228 18.1075 35.5228 17.7514 35.2084 17.6482L25.4102 14.4331C25.1602 14.351 24.886 14.4981 24.886 14.7143L27.0251 17.9294L24.886 21.1446C24.886 21.3608 25.1602 21.5078 25.4102 21.4258L35.2084 18.2107Z"></path>
  <path fill="black" d="M17.796 0.235782C17.6928 -0.0785932 17.3367 -0.0785945 17.2335 0.235781L14.0184 10.034C13.9364 10.2841 14.0834 10.5582 14.2996 10.5582L17.5148 8.41912L20.7299 10.5582C20.9461 10.5582 21.0932 10.2841 21.0111 10.034L17.796 0.235782Z"></path>
  <path fill="black" d="M0.235782 17.2335C-0.0785932 17.3367 -0.0785945 17.6928 0.235781 17.7959L10.034 21.0111C10.2841 21.0931 10.5582 20.946 10.5582 20.7299L8.41912 17.5147L10.5582 14.2996C10.5582 14.0834 10.2841 13.9363 10.034 14.0184L0.235782 17.2335Z"></path>
  <path fill="black" d="M17.4409 35.0011C17.544 35.3154 17.9001 35.3154 18.0033 35.0011L21.2184 25.2028C21.3005 24.9528 21.1534 24.6786 20.9372 24.6786L17.7221 26.8177L14.5069 24.6786C14.2908 24.6786 14.1437 24.9528 14.2257 25.2028L17.4409 35.0011Z"></path>
</svg>