<svg xmlns="http://www.w3.org/2000/svg" fill="none" viewBox="0 0 55 8" height="8" width="55">
  <path fill="black" d="M10.3225 4.21055C10.6368 4.10739 10.6368 3.75126 10.3225 3.6481L0.524229 0.432964C0.274184 0.350916 -7.08887e-09 0.498001 0 0.714186L2.13912 3.92933L1.90735e-06 7.14446C1.91444e-06 7.36065 0.274184 7.50773 0.524229 7.42569L10.3225 4.21055Z"></path>
  <path fill="black" d="M21.3225 4.21055C21.6368 4.10739 21.6368 3.75126 21.3225 3.6481L11.5242 0.432964C11.2742 0.350916 11 0.498001 11 0.714186L13.1391 3.92933L11 7.14446C11 7.36065 11.2742 7.50773 11.5242 7.42569L21.3225 4.21055Z"></path>
  <path fill="black" d="M32.3225 4.21055C32.6368 4.10739 32.6368 3.75126 32.3225 3.6481L22.5242 0.432964C22.2742 0.350916 22 0.498001 22 0.714186L24.1391 3.92933L22 7.14446C22 7.36065 22.2742 7.50773 22.5242 7.42569L32.3225 4.21055Z"></path>
  <path fill="black" d="M43.3225 4.21055C43.6368 4.10739 43.6368 3.75126 43.3225 3.6481L33.5242 0.432964C33.2742 0.350916 33 0.498001 33 0.714186L35.1391 3.92933L33 7.14446C33 7.36065 33.2742 7.50773 33.5242 7.42569L43.3225 4.21055Z"></path>
  <path fill="black" d="M54.3225 4.21055C54.6368 4.10739 54.6368 3.75126 54.3225 3.6481L44.5242 0.432964C44.2742 0.350916 44 0.498001 44 0.714186L46.1391 3.92933L44 7.14446C44 7.36065 44.2742 7.50773 44.5242 7.42569L54.3225 4.21055Z"></path>
</svg>