<svg xmlns="http://www.w3.org/2000/svg" fill="none" viewBox="0 0 55 38" height="38" width="55">
  <path fill="black" d="M19.8541 26.544C20.0954 26.3176 19.9449 25.9949 19.6164 26.0343L9.37743 27.2613C9.11614 27.2926 8.92981 27.5417 9.02117 27.7377L12.3187 29.7476L11.7387 33.5655C11.8301 33.7614 12.1407 33.7789 12.3327 33.5988L19.8541 26.544Z"></path>
  <path fill="black" d="M10.9998 30.9599C11.26 30.7554 11.1382 30.4208 10.8075 30.4314L0.500499 30.7613C0.237471 30.7697 0.0301281 31.0017 0.104068 31.2049L3.21383 33.4945L2.30335 37.2474C2.37729 37.4505 2.68525 37.4949 2.89215 37.3323L10.9998 30.9599Z"></path>
  <path fill="black" d="M28.7324 21.4095C28.9531 21.163 28.775 20.8546 28.4512 20.9224L18.3581 23.0371C18.1005 23.0911 17.9366 23.3556 18.0447 23.5428L21.5048 25.2576L21.2599 29.1116C21.3679 29.2988 21.6789 29.2891 21.8545 29.093L28.7324 21.4095Z"></path>
  <path fill="black" d="M37.1952 16.1037C37.3935 15.8389 37.1893 15.5472 36.8726 15.643L27.0022 18.6293C26.7503 18.7055 26.6101 18.9833 26.7341 19.1604L30.3305 20.5671L30.4224 24.4278C30.5464 24.6048 30.8553 24.5681 31.0131 24.3574L37.1952 16.1037Z"></path>
  <path fill="black" d="M45.2684 9.66107C45.4429 9.37997 45.214 9.10717 44.9069 9.23022L35.3344 13.0655C35.0901 13.1633 34.9746 13.4522 35.1136 13.6179L38.8189 14.7058L39.2469 18.5437C39.3858 18.7093 39.6904 18.6458 39.8292 18.4222L45.2684 9.66107Z"></path>
  <path fill="black" d="M51.9367 2.8542C52.0861 2.55895 51.8343 2.30714 51.539 2.45649L42.3372 7.11143C42.1024 7.23023 42.0125 7.52811 42.1653 7.68097L45.9514 8.44183L46.7122 12.2279C46.8651 12.3807 47.163 12.2909 47.2818 12.056L51.9367 2.8542Z"></path>
</svg>