<svg xmlns="http://www.w3.org/2000/svg" fill="none" viewBox="0 0 53 30" height="30" width="53">
  <path fill="black" d="M51.8225 25.8008C52.1368 25.6976 52.1368 25.3415 51.8225 25.2383L42.0242 22.0232C41.7742 21.9411 41.5 22.0882 41.5 22.3044L43.6391 25.5195L41.5 28.7347C41.5 28.9509 41.7742 29.0979 42.0242 29.0159L51.8225 25.8008Z"></path>
  <path fill="black" d="M48.3398 13.4096C48.5605 13.1631 48.3824 12.8547 48.0586 12.9225L37.9655 15.0373C37.708 15.0912 37.544 15.3557 37.6521 15.5429L41.1122 17.2578L40.8673 21.1117C40.9754 21.2989 41.2864 21.2892 41.4619 21.0931L48.3398 13.4096Z"></path>
  <path fill="black" d="M38.9527 4.10448C39.0205 3.78065 38.7121 3.60259 38.4656 3.82326L30.7821 10.7012C30.586 10.8767 30.5763 11.1877 30.7635 11.2958L34.6175 11.0508L36.3323 14.511C36.5195 14.619 36.784 14.4551 36.838 14.1976L38.9527 4.10448Z"></path>
  <path fill="black" d="M0.236137 25.8008C-0.0782375 25.6976 -0.0782375 25.3415 0.236137 25.2383L10.0344 22.0232C10.2844 21.9411 10.5586 22.0882 10.5586 22.3044L8.41947 25.5195L10.5586 28.7347C10.5586 28.9509 10.2844 29.0979 10.0344 29.0159L0.236137 25.8008Z"></path>
  <path fill="black" d="M3.71877 13.4096C3.49809 13.1631 3.67615 12.8547 3.99999 12.9225L14.0931 15.0373C14.3506 15.0912 14.5145 15.3557 14.4065 15.5429L10.9464 17.2578L11.1913 21.1117C11.0832 21.2989 10.7722 21.2892 10.5967 21.0931L3.71877 13.4096Z"></path>
  <path fill="black" d="M13.1059 4.10448C13.0381 3.78065 13.3465 3.60259 13.593 3.82326L21.2765 10.7012C21.4726 10.8767 21.4823 11.1877 21.2951 11.2958L17.4411 11.0508L15.7263 14.511C15.5391 14.619 15.2746 14.4551 15.2206 14.1976L13.1059 4.10448Z"></path>
  <path fill="black" d="M25.758 0.235771C25.8611 -0.0786039 26.2172 -0.0786039 26.3204 0.235771L29.5355 10.034C29.6176 10.284 29.4705 10.5582 29.2543 10.5582L26.0392 8.4191L22.824 10.5582C22.6079 10.5582 22.4608 10.284 22.5428 10.034L25.758 0.235771Z"></path>
</svg>