<svg width="88" height="68" viewBox="0 0 88 68" fill="none" xmlns="http://www.w3.org/2000/svg" class="w-[76px] tablet:w-[88px] text-inherit undefined"><path fill-rule="evenodd" clip-rule="evenodd" d="M50.3 0.218709C50.5586 0.192113 50.9529 0.13552 51.1763 0.092914C52.209 -0.103977 52.4615 -0.016312 52.7287 0.632244C52.8652 0.963451 53.1124 1.37866 53.1766 1.38456C53.1931 1.38607 53.3701 1.39269 53.5699 1.39932C54.0264 1.41447 55.648 2.03617 56.0287 2.34199C56.466 2.69329 55.6498 3.128 54.2325 3.29864C53.6868 3.36431 53.5272 3.5081 53.5272 3.93394C53.5272 4.11332 53.503 4.19986 53.4213 4.31266C53.313 4.46221 53.2487 4.55044 53.2183 4.64911C53.1737 4.79427 53.2026 4.96206 53.2735 5.38099C53.4063 6.16606 53.3988 6.20195 53.0344 6.52412C52.7112 6.80984 52.6668 6.88455 52.5629 7.31715C52.4362 7.84533 52.1872 8.0408 51.6951 7.99858C51.358 7.96966 51.2617 8.01373 51.2617 8.19672C51.2617 8.77207 54.1921 8.97538 56.3553 8.55005C56.7712 8.46828 58.3398 8.2917 59.4391 8.20292C60.2842 8.13462 60.6195 8.08259 61.763 7.84202C63.0205 7.57756 63.2837 7.55703 65.346 7.56258C67.8331 7.5693 68.1856 7.62907 68.0863 8.02737C68.0401 8.21252 67.7965 8.28736 66.8274 8.41405C65.7124 8.55986 65.5906 8.61641 65.6747 8.94968C65.7398 9.20816 65.6855 9.28782 65.1616 9.70256C64.9177 9.89562 64.6703 10.0923 64.6119 10.1397C64.3681 10.3371 63.8649 10.2301 63.3433 9.86997C62.8567 9.5339 62.8283 9.53962 61.328 10.2765C58.0769 11.8731 57.7429 11.9739 56.4124 11.76C54.9128 11.5189 54.3996 11.6205 53.228 12.3901C52.6287 12.7838 52.3681 12.9207 52.0311 13.0189C51.6522 13.1293 51.6146 13.195 51.5739 13.8193C51.5113 14.7791 51.7068 14.9863 52.7533 15.0699C53.2292 15.1079 53.8595 15.2317 54.9377 15.4992C56.8155 15.9649 57.035 15.9877 57.7802 15.7955C58.4166 15.6313 58.6729 15.6405 59.0968 15.8426L59.3875 15.9812L59.7593 15.9133C59.9638 15.876 60.3908 15.8246 60.7082 15.7992C61.1529 15.7635 61.3386 15.7514 61.4977 15.6801C61.6229 15.624 61.7316 15.5313 61.9369 15.3617C64.0794 13.5919 65.2786 12.7671 66.889 11.9555C69.3386 10.7211 72.3865 9.99753 74.5444 10.1382L74.9803 10.1667L74.8506 9.79203C74.5817 9.01574 74.7312 7.75117 75.0916 7.75289C75.3288 7.75401 75.7526 8.21338 76.1703 8.92214C76.6348 9.71005 76.9844 9.97136 76.9788 9.52641C76.9741 9.15518 77.2311 8.65493 77.4265 8.65493C77.5499 8.65493 77.8498 9.05628 78.0829 9.53368C78.3377 10.0553 78.3923 10.1173 78.8089 10.3586C79.2264 10.6004 79.5747 10.9847 79.8325 11.4879C80.1591 12.1255 80.2326 12.2249 80.8589 12.8777C81.7118 13.7667 82.055 14.1699 82.7267 15.0725C84.0452 16.8442 85.1553 18.4385 85.6498 19.2705C85.7647 19.4639 86.0474 19.84 86.2781 20.1064C87.0984 21.0535 87.1485 21.7598 86.4439 22.446C86.2726 22.6129 86.2693 22.6218 86.2693 22.9144C86.2693 23.9594 85.3834 24.3788 84.2574 23.8669C83.8797 23.6952 83.761 23.6874 83.3217 23.805C82.7789 23.9503 82.5607 23.8558 82.2162 23.3259C81.8872 22.82 81.6581 22.6416 80.3775 21.8937C79.0319 21.1079 78.5608 20.8433 78.1807 20.66L77.8075 20.4799L77.0256 20.4451C75.5028 20.3772 74.6685 19.9903 73.9549 19.0212C73.1487 17.9262 71.043 21.0463 70.3498 24.3632C69.9163 26.4372 70.098 28.0336 71.0503 30.5173C71.3252 31.2346 71.3942 31.5825 71.3944 32.2533C71.3947 33.5764 71.4705 33.7658 71.9867 33.7328C72.672 33.6889 74.8249 32.9997 76.7159 32.2189C77.7202 31.8042 78.7744 32.1839 79.8677 33.3539C80.1756 33.6835 80.3453 33.9011 81.1627 35.0146C81.423 35.3693 81.8169 35.8088 82.4201 36.4175C83.5712 37.5791 83.6846 37.7705 83.8127 38.7684C83.9773 40.0509 84.6506 40.8916 86.5458 42.1808C87.7988 43.0332 88.0446 43.5354 87.938 45.0245C87.8938 45.6413 87.8941 45.8963 87.9395 46.4016C88.0584 47.7256 88.02 48.267 87.6619 50.3118C87.5291 51.0708 87.1043 51.0998 86.5168 50.3899C86.4137 50.2653 86.1686 49.9697 85.9721 49.733C85.7756 49.4963 85.3086 48.9831 84.9343 48.5925C83.9317 47.5464 83.7598 47.2407 83.7992 46.5735C83.8348 45.9686 83.9981 45.816 84.9341 45.5125C86.3053 45.068 86.0042 44.4571 83.417 42.434C83.0565 42.1522 82.9058 42.0152 82.8052 42.0453C82.7138 42.0727 82.6637 42.238 82.5356 42.5578C82.1715 43.4665 81.6134 43.929 81.2946 43.5861C81.0612 43.3351 80.2903 41.9189 80.0307 41.2642C79.986 41.1516 79.9585 41.0815 79.91 41.0319C79.8297 40.9497 79.6919 40.9237 79.3233 40.8533C78.3016 40.658 77.0133 40.4695 75.455 40.2872C73.7055 40.0826 73.1294 39.9933 72.5214 39.8325C71.8141 39.6454 71.6548 39.6461 71.1164 39.8391C69.1733 40.5353 68.7983 40.5375 67.8038 39.8587C67.4969 39.6493 67.249 39.7158 66.4656 40.2178C65.1333 41.0716 64.4156 41.2181 63.484 40.8264C63.3326 40.7627 63.101 40.6695 62.9694 40.6192L62.7301 40.5277L62.464 40.7291C62.1785 40.9452 61.6898 41.2732 60.8365 41.8217C55.8689 45.014 47.9171 46.7669 43.696 45.5999C43.3081 45.4926 42.7419 45.3543 42.4377 45.2924L41.8847 45.1799L41.6897 45.2819C41.4868 45.3879 40.9722 45.893 39.1224 47.8014C36.6596 50.3423 35.5239 51.1641 33.8648 51.6059C31.357 52.2738 29.0534 53.4149 27.0892 54.9622C25.2313 56.4258 24.8034 56.6605 23.4353 56.9662C22.5346 57.1675 22.4253 57.2281 21.7744 57.8864C21.1392 58.5291 20.7043 58.8876 19.973 59.3714L18.9331 60.0589C17.9793 60.6892 17.299 61.4454 16.2011 63.0958C14.4648 65.7056 14.2557 65.9057 12.9887 66.1705C12.2977 66.315 12.177 66.3561 11.4669 66.6888C10.1319 67.3142 9.36113 67.4833 7.82277 67.4886C6.56224 67.4929 6.39896 67.3972 6.55305 66.7442C6.6874 66.175 7.04294 65.79 8.15421 65.0105C8.31877 64.8951 8.6697 64.6485 8.93408 64.4625C9.83953 63.8256 9.9563 63.8301 10.9835 64.5406C11.742 65.0653 11.8778 65.0973 12.2284 64.8339C12.6541 64.5141 13.6613 63.4396 14.2226 62.7062C15.1274 61.5241 15.3294 61.2399 16.1017 60.0617C16.9406 58.7821 17.439 57.8797 17.9619 56.6936C18.5729 55.308 18.8329 55.0245 20.0904 54.3731C23.7602 52.4722 25.0369 51.1425 25.2739 48.9743C25.2845 48.877 25.2937 48.789 25.3005 48.7097C25.3465 48.6963 25.3947 48.6823 25.4451 48.6677C26.0675 48.487 27.0345 48.2062 28.4894 47.5596C29.8729 46.9448 32.1868 44.4804 33.8242 42.3574C34.4348 41.5657 34.1129 41.379 33.4305 42.1097C31.4701 44.2087 29.0818 46.2717 28.6501 46.5954C28.1358 46.9811 24.9774 48.0526 23.9023 48.3655L23.9046 48.3688C22.3236 48.8301 21.0479 49.3628 19.6133 50.1589C18.7059 50.6625 18.4769 50.7457 17.762 50.8316C17.0052 50.9226 16.7333 51.0462 16.0231 51.6223C15.7858 51.8148 15.2914 52.1984 14.9243 52.4747C13.6918 53.4026 13.3043 54.0179 11.9504 57.1966C11.1094 59.1713 10.6477 59.697 9.3254 60.1855C8.66483 60.4295 8.57665 60.4765 7.74814 61.0262C6.62585 61.7709 5.45675 62.2883 4.38571 62.5143C3.43717 62.7144 3.28842 62.5389 3.47461 61.4389C3.75425 59.7869 4.11403 59.2365 5.54096 58.2779C5.94883 58.0039 6.14563 57.8715 6.34916 57.8602C6.53969 57.8496 6.73611 57.9452 7.11711 58.1302C8.03106 58.5739 8.09689 58.5628 8.42358 57.9099C8.56878 57.6197 8.75908 57.4225 9.14245 57.1648C10.1048 56.5181 10.8931 54.7032 11.6983 51.2801C12.242 48.9693 12.2996 48.8954 13.9247 48.4232C15.2253 48.0454 16.0633 47.6155 17.4511 46.6144C18.9659 45.5216 19.2721 44.8133 19.5241 41.8197C19.7083 39.6308 20.2328 38.3691 21.8877 36.1336C22.2768 35.608 22.2811 35.5914 22.0429 35.5415C21.364 35.3991 20.9385 35.6558 19.5242 37.061C16.6965 39.8703 15.0468 40.6244 10.9112 40.998C10.4998 41.0352 9.92288 41.0936 9.62914 41.128C5.94297 41.5585 2.37763 40.4902 0.321331 38.339C-0.183948 37.8104 -0.128766 37.7469 0.74125 37.8554C1.97177 38.0089 2.07012 37.911 1.42199 37.1773C0.77147 36.441 0.851573 36.3191 1.79853 36.6045C2.74732 36.8904 3.45679 36.9563 3.87816 36.7975C4.01522 36.7459 4.08482 36.725 4.09534 36.6875C4.10652 36.6477 4.05096 36.5891 3.93869 36.455C3.58378 36.0313 4.42785 35.7792 5.33527 36.0379C6.84978 36.4697 7.77302 36.1705 9.25025 34.7691C10.5379 33.5475 11.7113 32.9118 13.2835 32.5838C14.6631 32.2959 17.2382 32.3941 18.883 32.7973C19.0711 32.8434 19.5423 32.958 19.9302 33.0519C22.2554 33.6151 23.4151 33.67 24.5928 33.2728C24.9723 33.1448 25.162 33.0602 26.2155 32.5496C28.4586 31.4625 30.219 31.0073 32.5098 30.9224C33.4114 30.8889 33.5371 30.8549 33.6358 30.617C33.7946 30.2343 33.6622 29.9788 33.1701 29.7184C31.9708 29.0839 32.0857 27.9215 33.44 26.9866C34.2133 26.4527 34.4205 26.2256 34.4205 25.9121C34.4205 25.6612 34.2772 25.5694 33.7792 25.5014C33.169 25.4181 32.9986 25.3691 32.6253 25.1693C32.1922 24.9376 32.0747 24.8647 31.9552 24.8615C31.8873 24.8596 31.8188 24.8804 31.6912 24.9073C30.342 25.1918 30.789 23.4805 32.1864 23.0112C32.7201 22.8319 32.7641 22.7923 33.0083 22.2712C33.3665 21.5066 33.874 21.0671 35.1398 20.4255C36.107 19.9352 36.438 19.5853 37.4401 17.9934C38.7706 15.8801 39.1954 14.8129 39.3159 13.2813C39.4792 11.2047 40.2694 9.43388 41.6833 7.97569C42.2045 7.43817 42.1595 7.19092 41.4282 6.57787C41.0432 6.2551 41.0172 6.2449 40.5805 6.2449C40.1035 6.2449 40.0158 6.20591 39.8679 5.92785C39.8033 5.80636 39.7456 5.70075 39.7397 5.69317C39.7339 5.6856 39.5793 5.64175 39.3963 5.5957C39.0343 5.50459 38.9087 5.42239 38.9087 5.27658C38.9087 5.08249 39.0835 5.02943 40.4261 4.81627C40.7783 4.76036 41.131 4.79811 41.5478 4.93638L41.9 5.05327L42.081 4.97129C42.1819 4.92554 42.475 4.68376 42.7435 4.42473C43.398 3.79321 43.5974 3.71463 44.2175 3.84356C44.4517 3.89228 44.4885 3.88781 44.8399 3.76825C45.5257 3.53499 45.8552 3.60325 46.4019 4.09184C46.7809 4.43062 46.8888 4.42838 47.0929 4.07777C47.3691 3.60321 47.1314 3.29589 46.5006 3.31181C45.3661 3.34047 44.5181 2.83953 44.8917 2.3614C45.1574 2.02137 46.5447 1.6405 47.5216 1.63942C48.2753 1.63856 48.3186 1.6238 48.214 1.40302C47.9756 0.899757 48.9263 0.359997 50.3 0.218709ZM52.1145 0.738931C52.2668 0.545354 52.2744 0.497025 52.1622 0.436516C52.06 0.381472 51.9921 0.384829 51.6678 0.461089C51.0733 0.600871 50.7759 0.648297 50.337 0.673215C49.5015 0.720684 49.1692 0.829307 48.8533 1.15815L48.6889 1.3293L49.3266 1.30654C49.9017 1.28601 49.9902 1.29276 50.2274 1.37544C50.3721 1.42583 50.6261 1.4798 50.7919 1.49529C50.9792 1.51283 51.0718 1.51981 51.0917 1.56147C51.1115 1.60304 51.0589 1.67912 50.9555 1.83463C50.6015 2.36712 50.5095 2.38197 48.949 2.15835C47.3738 1.93263 46.8082 1.94227 47.7352 2.17901C48.6795 2.42018 49.8641 2.56371 50.6388 2.53074C51.6949 2.48577 53.7875 1.99425 53.8604 1.77395C53.8972 1.66288 53.1688 1.60193 52.6609 1.74297C52.59 1.76264 52.475 1.80509 52.3661 1.84529C52.2293 1.89578 52.102 1.94274 52.0838 1.93663C52.0191 1.91494 52.2224 1.63189 52.3403 1.59234C52.3885 1.57616 52.4174 1.45901 52.2975 1.29109C52.1033 1.01885 52.0215 0.946584 52.0265 0.880814C52.0293 0.84334 52.0602 0.807975 52.1145 0.738931ZM46.7498 5.05973C46.7094 4.7889 46.4729 4.54708 46.0431 4.33732C45.5514 4.09731 45.3851 4.09545 44.8769 4.32432C44.5738 4.46079 44.5363 4.46191 44.1287 4.34674C43.5535 4.18424 43.3586 4.27212 42.8768 4.91116L42.5769 5.30878L42.6556 5.45643C42.8652 5.84978 42.9024 5.84565 43.457 5.36726C44.2548 4.67911 44.6211 4.65648 45.0284 5.27017C45.4252 5.86799 45.6046 5.96491 46.6386 6.14002C47.4061 6.26999 47.9923 6.45358 48.8109 6.82025C49.4612 7.11152 49.7575 6.99838 49.3383 6.61888C48.8782 6.20247 48.3103 5.89966 47.4575 5.6161C46.8937 5.42863 46.7929 5.34936 46.7498 5.05973ZM42.2171 5.84561C42.2936 5.72098 42.1397 5.65982 41.1527 5.42248C40.5173 5.26966 40.1483 5.2561 40.1483 5.38555C40.1483 5.72136 40.3515 5.858 40.8492 5.85689C41.0181 5.8565 41.3296 5.8988 41.5512 5.95217C41.9795 6.05533 42.1003 6.036 42.2171 5.84561ZM49.743 9.74159C49.5664 8.00512 48.8532 7.11367 47.3065 6.69613C44.7319 6.00114 41.7821 7.77639 40.5669 10.7521C39.9544 12.2519 40.1171 13.3907 40.8873 12.9953C41.8718 12.4898 42.4687 11.6827 42.1118 11.3395C41.1272 10.393 43.1044 9.25864 45.0372 9.66107C45.5213 9.76186 45.8711 9.9254 46.5073 10.3483C47.0536 10.7115 47.4195 10.905 47.7781 11.0204C48.4197 11.2269 48.4975 11.5788 47.8884 11.5194C47.7337 11.5043 47.3529 11.4528 47.0423 11.4049C45.9149 11.2311 45.8799 11.3655 46.7687 12.4563C47.6332 13.5175 48.0273 13.7118 49.4451 13.776C49.9153 13.7973 50.4352 13.8278 50.6003 13.8438C51.04 13.8864 51.1487 13.6644 50.8987 13.2348C50.7824 13.0351 50.1307 12.242 50.064 12.2191C49.6845 12.0888 49.21 11.3145 49.21 10.8256C49.21 10.3809 49.2049 10.3717 48.6092 9.7496C48.1798 9.30125 48.0897 9.13396 48.1828 8.95872C48.3053 8.72822 48.5079 8.84076 49.1569 9.49994C49.7726 10.1254 49.7824 10.1294 49.743 9.74159ZM63.7003 8.15644C64.0029 8.13479 64.1143 8.11405 64.0423 8.09266C63.8231 8.02772 62.9915 8.08087 62.3966 8.19788C60.8523 8.50168 60.1367 8.61727 59.1694 8.7194C58.0784 8.8346 57.5042 8.91448 56.4765 9.09398C55.3396 9.2926 54.0675 9.35181 52.8005 9.26505C51.6364 9.18535 51.9671 9.41581 53.553 9.78936C54.6898 10.0572 55.0614 10.0442 55.8759 9.70833C56.6904 9.37247 56.9619 9.3213 58.6138 9.19258C60.0775 9.07853 60.6016 8.97193 62.0333 8.49707C62.6152 8.30405 63.1425 8.19633 63.7003 8.15644ZM79.3709 11.857C79.4858 11.396 78.9753 10.7807 78.252 10.5082C77.6273 10.2728 77.6522 10.3389 78.511 11.1964C79.3255 12.0099 79.3317 12.0146 79.3709 11.857ZM73.6021 11.8239C74.25 11.1996 74.5226 10.841 74.3802 10.8008C74.2773 10.7717 73.5446 10.7659 73.275 10.792C73.1927 10.7999 72.9042 10.8276 72.6339 10.8534C70.2943 11.0766 67.9837 11.8721 66.1001 13.103C65.5935 13.434 65.6451 13.4472 66.4027 13.1804C68.9335 12.2894 69.5005 12.2242 70.8376 12.6707C71.8708 13.0157 72.5959 12.7937 73.6021 11.8239ZM78.3437 11.6924C77.9202 11.4247 77.2398 11.0838 76.9558 10.997C76.5459 10.8717 76.5408 10.886 76.8061 11.4209C77.6135 13.049 78.1907 13.5542 79.2991 13.6026L79.9254 13.63L80.3938 13.8804C80.9877 14.1979 80.9913 14.2014 81.0529 14.5206C81.0813 14.6674 81.1806 14.9519 81.2737 15.1526C81.3668 15.3534 81.5007 15.748 81.5713 16.0296C81.8087 16.9766 82.0814 17.3982 82.8974 18.08C83.7782 18.816 84.015 19.1046 83.8048 19.1858C83.6643 19.2401 83.0717 18.8212 82.3154 18.1331C81.758 17.6259 81.53 17.6655 81.8079 18.2212C82.2046 19.0145 82.6771 19.3462 83.6575 19.5193C84.5576 19.6783 84.8204 19.8584 85.3439 20.6756C85.6642 21.1754 85.9292 21.2552 86.0899 20.8999C86.1876 20.6842 86.1779 20.6614 85.7458 20.0863C85.6106 19.9065 85.3515 19.5316 85.1699 19.2532C84.7292 18.5776 83.9488 17.491 82.8901 16.0787C82.411 15.4396 81.8531 14.6791 81.6503 14.3886C80.8374 13.224 80.2953 12.7004 79.5157 12.3268C78.8788 12.0217 78.7798 11.9681 78.3437 11.6924ZM51.3338 14.7986C51.1188 14.4499 50.9917 14.3775 50.5137 14.3312C48.9976 14.1845 48.8906 14.4049 49.9504 15.491C50.9992 16.5659 51.336 16.711 53.6982 17.1065C56.5122 17.5776 56.8403 17.6035 57.8198 17.4317C57.999 17.4003 58.2425 17.3914 58.4392 17.409C60.8911 17.6286 62.1188 17.3603 62.1188 16.6048C62.1188 16.2379 61.5509 16.1532 60.3021 16.3339C59.5547 16.442 59.1971 16.4371 58.9343 16.315C58.6673 16.1909 58.409 16.1901 57.7887 16.3112C57.0483 16.4559 56.9672 16.4465 54.9111 15.975C53.6509 15.686 53.3442 15.633 52.6937 15.5917C51.9134 15.5423 51.724 15.4318 51.3338 14.7986ZM81.1749 18.1507C81.2192 17.6076 79.8915 16.0387 78.7316 15.2636C78.3578 15.0138 78.3344 15.043 78.5593 15.4778C79.4357 17.1721 81.1147 18.8879 81.1749 18.1507ZM41.7379 17.9551C41.6854 17.9269 41.4956 17.8659 41.316 17.8197C40.3475 17.5703 39.7303 17.815 39.1807 18.6664C38.6113 19.5486 38.4729 19.6157 38.4385 19.0267C38.4121 18.5742 38.2945 18.5049 38.0358 18.7892C37.7797 19.0707 37.7117 19.4178 37.7108 20.4469C37.7105 20.9321 37.6898 21.4647 37.665 21.6304C37.6402 21.796 37.6065 22.2359 37.5901 22.6077L37.5604 23.2838L37.3803 23.533C37.2171 23.7586 36.5577 24.8259 36.5577 24.8644C36.5577 24.9844 36.0013 25.5845 35.4781 26.0287C34.1495 27.1565 33.6828 27.5685 33.5254 27.7526C32.8333 28.562 33.1759 29.3087 34.2923 29.4246C34.4216 29.438 34.7643 29.4957 35.0538 29.5528C36.2163 29.7821 36.8546 29.675 38.1606 29.0319C39.8217 28.214 41.6363 26.9534 43.3286 25.4417C44.4034 24.4815 44.6381 24.2936 45.3829 23.7968C46.5004 23.0512 46.6072 23.2443 45.7833 24.5204C45.208 25.4113 45.7979 25.2464 47.6252 24.0052C48.1935 23.6192 48.2547 23.7022 47.8257 24.2771C46.7972 25.6554 43.6727 28.2059 41.7084 29.2707C41.0283 29.6393 39.9489 30.2044 39.1865 30.5908C38.7398 30.8172 38.259 31.0658 38.1179 31.1432C37.897 31.2643 37.2599 31.5675 36.5493 31.8897C34.8444 32.6625 33.6514 33.0156 31.8772 33.2726C31.6004 33.3127 31.4538 33.3268 31.3352 33.3921C31.1769 33.4793 31.0687 33.6576 30.7677 34.1109C29.4356 36.1164 29.5442 36.1923 32.0482 35.0055C32.4949 34.7939 33.1104 34.5076 33.416 34.3695C34.3798 33.9338 37.581 32.2898 38.6949 31.6584C38.8713 31.5584 39.1309 31.4126 39.272 31.3342C41.6196 30.0307 44.3001 28.2253 46.2082 26.6628C46.7968 26.1808 47.5779 25.5267 47.6453 25.4593C47.8021 25.3028 49.5055 23.9491 49.8035 23.7443C50.232 23.4498 50.4647 23.3279 50.9657 23.1354C51.6645 22.8669 51.7032 22.8258 51.4668 22.6033C50.8919 22.0623 47.7093 20.9709 46.4476 20.882C45.0805 20.7857 44.6894 20.9193 43.3327 21.9458C42.2859 22.7377 39.8105 25.0747 39.9639 25.1261C40.0434 25.1528 40.9088 24.7156 41.5218 24.339C43.1877 23.3155 43.4845 23.138 43.7815 22.9869C44.4037 22.6705 45.0086 22.5453 45.4599 22.6396C45.8763 22.7267 45.8097 22.8251 45.0476 23.2492C43.9489 23.8606 43.3963 24.2186 42.6702 24.7896C40.7462 26.3025 38.8279 27.3159 36.0662 28.2785C33.2501 29.2601 33.0079 28.7133 35.4253 26.8319C36.7617 25.7919 37.4972 25.0236 38.1393 23.997C39.0357 22.5635 39.1266 22.4963 40.4475 22.2918C42.4723 21.9783 44.4547 20.9779 44.4639 20.2649C44.4682 19.9293 44.0655 19.9026 43.2393 20.184C42.3046 20.5025 42.1828 20.4661 42.7204 20.0291L43.0272 19.7798L42.6456 19.7662C42.1124 19.7473 41.3776 19.8594 40.4157 20.1065C38.8464 20.5096 38.9441 20.3257 40.8108 19.3627C41.4766 19.0192 41.6753 18.8995 41.5802 18.8993C41.3844 18.8989 40.8998 19.0116 40.684 19.1077C40.0469 19.3914 40.3277 19.0059 41.1527 18.4641C41.6858 18.1141 41.8142 18.0354 41.8031 17.9972C41.7986 17.9817 41.7708 17.9728 41.7379 17.9551ZM50.4069 18.6949C50.207 18.5334 49.9809 18.3566 49.9043 18.302C49.432 17.965 48.575 18.3707 48.2431 19.0884C47.9418 19.7399 48.1669 19.9213 49.8512 20.3837C50.1686 20.4708 50.7937 20.649 51.2404 20.7796C52.4306 21.1277 52.9292 21.2952 53.3385 21.1704C53.6832 21.0654 53.9646 20.7532 54.5424 20.1671C55.1359 19.565 55.4277 19.2945 55.3787 19.1994C55.333 19.1106 54.9899 19.1749 54.318 19.265C52.1029 19.5623 51.3434 19.4516 50.4069 18.6949ZM56.4603 21.3278C57.3987 20.7994 59.6918 18.4923 59.5044 18.265C59.4112 18.152 59.2343 18.2132 58.8597 18.4879C58.295 18.9022 58.1396 18.9498 57.2568 18.98L56.5195 19.0051L55.3012 20.2314C54.3691 21.1695 54.0992 21.4208 54.1431 21.5017C54.1652 21.5426 54.2676 21.54 54.4052 21.5605C55.2391 21.6854 55.9727 21.6024 56.4603 21.3278ZM82.465 20.3722C82.465 20.1105 81.4895 19.2704 81.0208 19.1284C80.3289 18.9187 80.3033 19.165 80.9591 19.7213C81.9263 20.5417 82.465 20.7745 82.465 20.3722ZM56.1035 22.5381C56.2659 22.2975 56.2709 22.2807 56.1967 22.2261C56.1047 22.1584 53.6554 22.1397 53.6554 22.2067C53.6554 22.2546 54.0055 22.651 54.2279 22.8549C54.9344 23.5028 55.5187 23.404 56.1035 22.5381ZM34.037 22.6504C34.1304 22.5323 34.2068 22.424 34.2068 22.4096C34.2068 22.3725 33.9593 22.385 33.7585 22.4323C33.5023 22.4927 33.3261 22.6365 33.2158 22.8753C33.0593 23.2141 32.9527 23.3139 32.6348 23.4192C31.6808 23.7349 31.4748 24.2151 32.204 24.4232C32.3367 24.4611 32.6156 24.571 32.8238 24.6675C34.0045 25.2147 34.6245 25.0437 35.1082 24.0376C35.4694 23.2863 35.1444 22.9424 34.4031 23.2917C33.8297 23.5619 33.6144 23.1849 34.037 22.6504ZM53.8511 26.2073C54.0703 25.7804 53.0624 24.3204 52.2357 23.8673C51.8193 23.6392 51.4819 23.6763 50.7464 24.0312C49.9693 24.4062 49.8764 24.681 50.4374 24.9454C51.1383 25.2759 51.3171 25.3794 51.6694 25.659C51.8801 25.8262 52.1265 26.0014 52.217 26.0483C52.3707 26.1281 52.3797 26.1433 52.3542 26.2801C52.2047 27.0826 53.4322 27.0229 53.8511 26.2073ZM59.1481 25.047C58.2658 24.5377 58.0186 24.4262 57.6438 24.3679C57.3464 24.3217 57.0992 24.3113 57.0108 24.3415C56.9873 24.3496 56.896 24.3682 56.8078 24.3831C56.1149 24.4998 57.1293 25.3781 59.4736 26.6912C61.6526 27.9117 62.7264 29.0683 61.2528 28.6076C59.6696 28.1127 58.4179 28.2155 59.0633 28.7875C59.2998 28.9972 59.5995 29.1119 60.6014 29.3761C64.4192 30.3832 65.0331 30.7874 67.0401 33.6163C68.5965 35.8101 68.6842 35.9148 68.8862 35.8221C68.9405 35.7972 69.0619 35.6286 69.1665 35.433C69.7007 34.4338 70.2429 34.621 70.7791 35.9898C70.8752 36.2353 70.9389 36.4086 71.0463 36.5485C71.3182 36.9029 71.87 37.0426 73.9376 37.5961C74.8534 37.8413 75.1086 37.9156 76.1602 38.2436C77.8135 38.7592 78.329 38.9212 78.8554 38.9722C79.1023 38.996 79.3516 38.9955 79.7217 38.9955C80.407 38.9955 80.7972 38.9954 81.1435 39.1186C81.602 39.2818 81.9835 39.6612 82.8711 40.5435C84.1066 41.7716 84.6727 42.2467 85.821 43.0194C86.8656 43.7222 86.9727 43.8811 86.9665 44.7193C86.9588 45.7451 86.7506 45.99 86.0342 45.8158C85.567 45.7023 85.2861 45.748 85.2861 45.9376C85.2861 46.1325 87.4085 48.0652 87.5101 47.9629C87.5351 47.9378 87.5161 47.6957 87.4597 47.3215C87.3585 46.6495 87.3283 45.1918 87.3968 44.2889C87.4574 43.4904 87.3117 43.286 86.1838 42.5879C85.01 41.8614 84.1517 41.0028 83.512 39.9155C82.8482 38.787 82.2354 38.4209 80.8194 38.3072C79.8064 38.2258 79.2792 38.0702 77.8273 37.4241C77.3336 37.2044 76.6027 36.8849 76.203 36.714C75.8033 36.5431 75.1205 36.2441 74.6856 36.0495C73.7664 35.6383 73.4787 35.5237 72.4629 35.1635C70.9346 34.6217 70.6417 34.401 69.9837 33.2955C69.5377 32.5463 69.4562 32.4562 68.8388 32.0298C68.0041 31.4534 67.7852 31.184 68.0002 30.9978C68.2188 30.8085 68.6127 31.0168 69.1314 31.5961C69.5606 32.0755 69.8127 32.0442 69.8127 31.5115C69.8127 30.0499 69.0475 28.5695 68.027 28.057L67.7587 27.9222L67.2149 27.9589C66.0513 28.0375 66.0314 28.0347 65.3019 27.6868C64.5978 27.3511 64.2391 27.2103 63.337 26.9156C61.8895 26.4428 60.4662 25.808 59.1481 25.047ZM52.2449 28.0467C52.2449 27.9118 51.4667 27.2854 51.1157 27.1377C50.3581 26.819 49.2092 27.4323 48.0898 28.7528C47.2098 29.7911 46.8939 30.5626 46.6009 32.3894C46.3406 34.0125 45.9948 35.0437 45.4339 35.8706C45.2702 36.1118 45.2815 36.2872 45.4699 36.4319C45.7297 36.6314 45.6791 36.7104 44.9783 37.1986C43.2282 38.418 43.236 39.5119 44.9948 39.5119C45.8484 39.5119 45.9187 39.5221 45.9187 39.6465C45.9187 39.9319 47.3239 39.9889 47.6178 39.7155C47.8849 39.4671 47.6429 39.1318 46.77 38.5411C46.0973 38.0859 46.0863 38.0532 46.351 37.2876C46.7577 36.1111 47.5897 34.5777 48.6377 33.0728C48.7056 32.9753 48.9815 32.5783 49.2506 32.1906C49.7838 31.4227 50.309 30.702 51.4822 29.1288C51.9017 28.5662 52.2449 28.0793 52.2449 28.0467ZM80.3938 34.7562C79.5029 33.4726 78.7797 32.884 77.7845 32.6327C76.5893 32.3309 76.3845 32.6414 77.4312 33.1684C77.8683 33.3884 78.9118 33.9969 79.5137 34.3827C79.9094 34.6364 80.1904 34.9716 80.9049 36.0425C81.884 37.5102 82.0038 37.6283 82.5219 37.636C82.8787 37.6412 82.8923 37.5588 82.5834 37.2604C81.4145 36.1311 81.0921 35.7623 80.3938 34.7562ZM79.1737 36.078C78.6812 35.5978 78.0167 35.1913 77.5451 35.0819C77.1177 34.9827 76.7741 35.0787 75.9874 35.5169C75.7304 35.6601 75.57 35.7353 75.5696 35.8114C75.569 35.9212 75.9017 36.0329 76.7587 36.3533C77.1818 36.5115 77.9128 36.8001 78.3829 36.9946C79.6265 37.5091 80.5415 37.7908 80.5415 37.6594C80.5415 37.5839 79.5905 36.4843 79.1737 36.078ZM48.3545 37.2401C48.1951 36.4566 48.117 36.1797 48.0311 36.0931C47.9782 36.0399 47.9413 35.9973 47.9198 36.004C47.87 36.0196 47.9034 36.3011 48.013 37.3323C48.301 40.0419 48.394 40.5017 48.6538 40.5017C48.9099 40.5017 48.8735 39.5576 48.5661 38.2306C48.5206 38.034 48.4254 37.5883 48.3545 37.2401ZM75.3554 37.3493C75.2622 37.2806 75.2997 37.1535 75.4289 37.101C75.4785 37.0808 75.5301 37.0631 75.5436 37.0615C75.7017 37.044 78.1544 37.8462 78.2563 37.9488C78.3961 38.0896 78.2666 38.1983 78.0108 38.1548C77.5848 38.0823 75.4866 37.4458 75.3554 37.3493ZM45.3091 40.6852C46.7734 40.7802 47.9243 40.6115 47.4921 40.3652C47.3944 40.3095 45.9723 40.2714 45.6195 40.315C44.5005 40.4535 44.358 40.6234 45.3091 40.6852Z" fill="currentColor"></path></svg>